# xmcd CD database file
#
# Track frame offsets:
#	150
#	16443
#	26568
#	42098
#	54387
#	72230
#
# Disc length: 1193 seconds
#
# Revision: 0
# Processed by: cddbd v1.5.1PL0 Copyright (c) Steve Scherf et al.
# Submitted via: CDex 1.50
#
DISCID=4604a706
DTITLE=Ken Polson - Diesel Diaries
DYEAR=2005
DGENRE=Country
TTITLE0=Truckie Song
TTITLE1=F J Song
TTITLE2=Rocky Road
TTITLE3=Lady
TTITLE4=Country Road
TTITLE5=Kenny P
EXTD=YEAR: 2005
EXTT0=
EXTT1=
EXTT2=
EXTT3=
EXTT4=
EXTT5=
PLAYORDER=
